<?xml version="1.0" encoding="UTF-8"?>
<svg id="Layer_1" data-name="Layer 1" xmlns="http://www.w3.org/2000/svg" viewBox="0 0 221.55 562.37">
  <defs>
    <style>
      .cls-1 {
        fill: #ff9c00;
      }

      .cls-1, .cls-2, .cls-3, .cls-4, .cls-5, .cls-6, .cls-7, .cls-8, .cls-9, .cls-10, .cls-11 {
        stroke-width: 0px;
      }

      .cls-2 {
        fill: #6040ff;
      }

      .cls-3 {
        fill: #ff404c;
      }

      .cls-4 {
        fill: #fff;
      }

      .cls-5 {
        fill: #6a4d5d;
      }

      .cls-6 {
        fill: #ff6a4c;
      }

      .cls-7 {
        fill: #edcfc7;
      }

      .cls-8 {
        fill: #c5023a;
      }

      .cls-9 {
        fill: #ff8c62;
      }

      .cls-10 {
        fill: #3832b5;
      }

      .cls-11 {
        fill: #37202c;
      }
    </style>
  </defs>
  <ellipse class="cls-7" cx="108.39" cy="550.15" rx="108.39" ry="12.21"/>
  <g>
    <g>
      <g>
        <polygon class="cls-9" points="37.75 501.06 36.29 521.65 57.42 522.04 58.58 502.73 37.75 501.06"/>
        <path class="cls-11" d="m122.69,265.18l-1.27,3.41-41.19,110.91c0,45.83-20.72,128.49-20.72,128.49l-24.82-1.18,6.81-129.26.09-1.77c.04-.16.08-.32.12-.48,6.37-25.46,19.61-89.06,28.63-119.73.25-.87.5-1.7.73-2.5,1.44-4.88,2.54-8.63,3.2-10.87.45-1.53.7-2.35.7-2.35l6.96,3.7,2,1.06,38.75,20.58Z"/>
        <path class="cls-5" d="m54.67,375.99c-3.3,1.32-6.67,1.76-9.69,1.76-1.22,0-2.39-.07-3.48-.19l.09-1.77c.04-.16.08-.32.12-.48,1.03.11,2.15.18,3.31.18,2.78,0,5.84-.39,8.81-1.58.57-.23,1.23.05,1.46.63.23.58-.05,1.23-.63,1.46Z"/>
        <g>
          <g>
            <path class="cls-3" d="m62.21,545.49c0,.16,0,.32,0,.48-.02.73-.05,1.38-.08,1.95-.07,1.24-.16,2-.16,2H20.93s-.2-1.59-.05-3.94c.27-4.19,1.66-10.81,7.33-15.19,7.76-6,4.76-4.75,6.35-7.48.18-.3,1.58-4.95,1.72-5.27,1.33-2.84,2.56-4.18,9.91-4.18,9.75,0,10.61,4.73,11.65,7.22.43,1.03,1.02,3.21,1.62,5.79.25,1.04.49,2.14.73,3.27.6,2.83,1.16,5.78,1.54,8.13.41,2.52.49,5.12.46,7.22Z"/>
            <path class="cls-8" d="m62.21,545.49c0,.16,0,.32,0,.48-.02.73-.05,1.38-.08,1.95-2-1.4-3.43-3.26-4.26-5.53-2.54-6.91,1.36-15.21,1.53-15.56l.08.04c.25,1.04.49,2.14.73,3.27-.92,2.82-1.99,7.57-.51,11.59.54,1.46,1.38,2.72,2.52,3.77Z"/>
            <path class="cls-8" d="m62.2,545.97c-.05,2.34-.24,3.94-.24,3.94H20.93s-.2-1.59-.05-3.94h41.32Z"/>
          </g>
          <g>
            <path class="cls-4" d="m43,518.33c-.03-.1-.07-.22-.12-.36-.01-.04-.03-.07-.04-.11-.1-.31-.24-.71-.41-1.17-.05-.12-.1-.25-.15-.39-.24-.64-.53-1.37-.86-2.14-1.02-2.33-2.45-5.01-4.14-6.61-.26-.24-.52-.46-.79-.64-.44-.31-.9-.54-1.37-.67-.13-.04-.26-.06-.41-.08-.8-.11-1.85.03-2.92,1.01-1.34,1.22-1.44,2.53-1.3,3.42.39,2.45,3.35,4.84,6.1,6.57.03.02.06.04.09.06.59.37,1.17.71,1.71,1.01,1.12.63,2.07,1.09,2.61,1.35.17.08.3.14.39.17.15.07.32.1.48.1.28,0,.56-.1.78-.29.09-.08.16-.16.22-.26.07-.11.12-.23.14-.35.05-.2.04-.42-.03-.62Zm-4.82-2.95c-.47-.28-.93-.58-1.38-.89-2.08-1.42-3.78-2.98-3.98-4.27-.05-.32-.04-.77.58-1.33.36-.33.65-.43.88-.43.1,0,.18.02.27.04.79.21,1.65,1.14,2.51,2.43.73,1.1,1.44,2.47,2.08,3.88.23.5.44,1.01.65,1.51-.53-.29-1.07-.61-1.6-.94Z"/>
            <path class="cls-4" d="m54.51,507.76c-.15-.2-.33-.4-.55-.6-1.27-1.16-2.51-1.15-3.33-.93-.72.2-1.42.63-2.08,1.24-1.65,1.53-3.06,4.11-4.08,6.41-.38.85-.7,1.65-.97,2.35-.05.13-.1.27-.15.4h0c-.17.48-.32.9-.43,1.23-.02.04-.03.07-.04.1-.05.14-.09.27-.12.36-.06.19-.07.39-.04.57.03.14.08.28.15.41.06.09.13.18.22.26.19.16.42.26.66.28.04.01.08.01.12.01.16,0,.33-.03.48-.1.1-.04.26-.12.48-.22.05-.03.1-.05.15-.08.64-.3,1.63-.8,2.76-1.45,1.5-.86,3.23-1.97,4.65-3.23,1.46-1.29,2.61-2.73,2.85-4.19.12-.74.06-1.79-.75-2.83Zm-1.56,2.45c-.19,1.17-1.59,2.55-3.39,3.86-1.1.8-2.36,1.58-3.57,2.24.33-.82.69-1.65,1.08-2.45,1.3-2.69,2.85-5.02,4.15-5.37.08-.02.17-.04.27-.04.23,0,.51.1.88.43.61.56.62,1,.57,1.33Z"/>
            <path class="cls-4" d="m42.85,516.44s-1.91-.9-2.06,1.72c-.12,2.12,1.39,2.58,2.01,2.22,0,0,1.3.39,1.95-.65.65-1.04.22-4.34-1.9-3.29Z"/>
            <path class="cls-4" d="m34.45,523.59c-.24,0-.49-.08-.7-.23-.52-.39-.62-1.12-.24-1.64,3.69-4.96,9.38-3.88,9.62-3.83.63.13,1.04.74.92,1.38-.13.63-.74,1.04-1.37.92-.19-.04-4.5-.81-7.28,2.93-.23.31-.58.47-.94.47Z"/>
            <path class="cls-4" d="m52.38,524.77c-.44,0-.87-.26-1.07-.69-1.89-4.17-8.51-5.18-8.58-5.19-.64-.09-1.08-.69-.99-1.33.09-.64.69-1.08,1.33-.99.32.05,7.96,1.22,10.37,6.54.27.59,0,1.28-.58,1.55-.16.07-.32.11-.48.11Z"/>
          </g>
          <path class="cls-4" d="m47.55,526.64c-.1,0-.2-.01-.29-.04-5.22-1.35-9.47-.21-9.51-.2-.62.17-1.27-.19-1.44-.82-.17-.62.19-1.27.82-1.44.2-.05,4.9-1.32,10.72.19.63.16,1,.8.84,1.43-.14.53-.61.88-1.13.88Z"/>
          <path class="cls-4" d="m45.8,530.35c-.1,0-.2-.01-.29-.04-5.18-1.34-9.47-.21-9.51-.2-.62.17-1.27-.2-1.44-.82-.17-.62.19-1.26.82-1.44.2-.05,4.9-1.32,10.72.19.63.16,1,.8.84,1.43-.14.53-.61.88-1.13.88Z"/>
          <path class="cls-4" d="m43.74,534.56c-.1,0-.2-.01-.29-.04-5.18-1.34-9.47-.21-9.51-.2-.62.17-1.27-.2-1.44-.82-.17-.62.19-1.27.82-1.44.2-.05,4.9-1.32,10.72.19.63.16,1,.8.84,1.43-.14.53-.61.88-1.13.88Z"/>
        </g>
        <path class="cls-5" d="m56.92,507.55c-.07,0-.15,0-.22-.02-.61-.12-1-.71-.88-1.32.11-.54,10.89-54.09,13.84-70.56,2.94-16.4,4.18-59.43,4.19-59.87,0-.15.04-.29.1-.43,7-15.65,39.01-103.22,39.33-104.1.21-.58.86-.88,1.44-.67.58.21.88.86.67,1.44-.32.88-32.09,87.79-39.3,104.05-.1,3.39-1.36,44.03-4.22,59.98-2.96,16.49-13.74,70.07-13.85,70.61-.11.53-.58.9-1.1.9Z"/>
      </g>
      <polygon class="cls-9" points="124.96 501.06 125.33 521.68 144.63 522.04 144.74 502.65 124.96 501.06"/>
      <g>
        <path class="cls-3" d="m189.86,550.57l-68.87-.74c-.5-.94-.77-2.26-.86-3.83-.37-5.83,1.59-15.11,2.56-20.96.12-.68.22-1.32.3-1.9.14-.98.22-1.79.23-2.39.05-4.78,4.28-3.92,4.28-3.92,6.9,6.91,14.9-3.26,19.47.16,0,0,1.97,1.44,7.39,6.42,5.41,4.98,14.68,8.32,22.56,11.72,10.17,4.38,13.03,8.68,13.56,11.62.42,2.33-.61,3.82-.61,3.82Z"/>
        <path class="cls-8" d="m189.86,550.57l-68.87-.74c-.5-.94-.77-2.26-.86-3.83l70.34.75c.42,2.33-.61,3.82-.61,3.82Z"/>
        <g>
          <path class="cls-4" d="m147.96,519.92s1.26-2.99,3.98-2.01c2.72.99,2.4,5.49,2.4,5.49,0,0-1.68,4.08-6.39-3.49Z"/>
          <path class="cls-4" d="m146.97,533.45c-.63,0-1.13-.52-1.12-1.15.07-6.84,4.39-10.5,4.57-10.65.48-.4,1.2-.33,1.6.15.4.48.33,1.2-.15,1.6-.16.13-3.69,3.18-3.76,8.93,0,.63-.52,1.13-1.15,1.12Z"/>
          <path class="cls-4" d="m161.38,524.68c-.27,0-.54-.1-.75-.29-1.43-1.29-5.66-1.58-7.99-1.45-.63.03-1.16-.45-1.19-1.07-.03-.63.45-1.16,1.07-1.19.71-.04,7.05-.31,9.63,2.04.46.42.5,1.14.08,1.6-.23.25-.54.38-.85.37Z"/>
          <path class="cls-4" d="m152.04,520.18c-.1-.1-.32-.32-.63-.62-.36-.33-.84-.77-1.41-1.25-.11-.1-.23-.19-.35-.29-1.26-1.03-2.88-2.2-4.6-3.04-.12-.06-.24-.12-.36-.17-1.24-.57-2.51-.95-3.73-.96-.03,0-.06,0-.09,0-1.42,0-2.63.5-3.58,1.47-.94.97-1.27,2.22-.93,3.46.02.07.04.14.06.22.29.83.85,1.59,1.64,2.25.3.25.63.48.99.69,1.19.71,2.7,1.22,4.41,1.47,2.13.31,3.79.44,5.03.47.15,0,.31,0,.45.01,1.11.01,1.83-.05,2.18-.1h0c.16-.02.24-.04.26-.04l-.45-2.34h0s-.02-.07-.02-.07c0,0-.02,0-.06,0l.59-.58.6-.59Zm-6.81.99c-.19-.02-.39-.05-.59-.07-.27-.04-.54-.08-.83-.12-3-.44-4.71-1.71-5.07-2.76-.03-.08-.04-.14-.06-.22-.05-.34.07-.65.36-.95.48-.5,1.06-.73,1.82-.73h.06c.5,0,1.04.11,1.6.29.7.23,1.42.56,2.14.97.15.08.31.17.47.27,1.01.61,2,1.33,2.86,2.02h0c.71.57,1.33,1.12,1.81,1.57-.24,0-.51.01-.82,0-.9-.01-2.14-.08-3.74-.27Z"/>
          <path class="cls-4" d="m153.27,522.69l-1.03-2.23c2.28-1.05,4.47-3.85,4.35-5.55-.03-.41-.2-.93-1.26-1.25-.74-.22-1.11-.04-1.35.14-1.2.91-1.6,4.01-1.58,5.75l-2.46.04c0-.59-.02-5.8,2.55-7.75.69-.52,1.86-1.04,3.54-.54,2.46.73,2.95,2.46,3.02,3.43.21,3.03-2.87,6.62-5.78,7.96Z"/>
        </g>
        <path class="cls-8" d="m128.02,549.91l-2.05-.02c2.07-2.31,4.02-5.87,3.82-10.99-.26-6.81-4.29-11.44-7.1-13.86.12-.68.22-1.32.3-1.9,3.03,2.37,8.13,7.54,8.45,15.69.19,4.89-1.46,8.52-3.41,11.07Z"/>
        <path class="cls-4" d="m153.14,527.46c-.51,0-.97-.36-1.09-.87-.14-.61.23-1.22.84-1.37l4.31-1.02c.61-.15,1.22.23,1.37.84.14.61-.23,1.22-.84,1.37l-4.31,1.02c-.09.02-.18.03-.27.03Z"/>
        <path class="cls-4" d="m157.41,530c-.51,0-.97-.36-1.09-.87-.14-.61.23-1.22.84-1.37l4.31-1.02c.61-.15,1.22.23,1.37.84.14.61-.23,1.22-.84,1.37l-4.31,1.02c-.09.02-.18.03-.27.03Z"/>
        <path class="cls-4" d="m161.69,532.45c-.51,0-.97-.36-1.09-.87-.14-.61.23-1.22.84-1.37l4.31-1.02c.61-.15,1.22.23,1.37.84.14.61-.23,1.22-.84,1.37l-4.31,1.02c-.09.02-.18.03-.27.03Z"/>
        <path class="cls-4" d="m166.36,534.73c-.51,0-.97-.36-1.09-.87-.14-.61.23-1.22.84-1.37l4.31-1.02c.61-.14,1.22.23,1.37.84.14.61-.23,1.22-.84,1.37l-4.31,1.02c-.09.02-.18.03-.27.03Z"/>
        <path class="cls-4" d="m171.42,536.68c-.51,0-.97-.36-1.09-.87-.14-.61.23-1.22.84-1.37l4.31-1.02c.61-.15,1.22.23,1.37.84.14.61-.23,1.22-.84,1.37l-4.31,1.02c-.09.02-.18.03-.27.03Z"/>
      </g>
      <path class="cls-11" d="m172.2,256.36c-7.9,5.27-25.88,9.56-44.09,11.6-23.47,2.63-47.32,1.52-50.4-6.04-.35-.85-.66-1.74-.95-2.67,0-.03-.01-.05-.02-.08-.21-.68-.4-1.39-.58-2.1-.32-1.29-.59-2.62-.82-3.98-.13-.8-.26-1.6-.36-2.41-1.65-12.5-.21-26.24-.21-26.24l89.05-18.69s8.79,25.42,10.18,40.38c.08.82.13,1.61.16,2.37.15,3.92-.38,6.82-1.96,7.87Z"/>
      <path class="cls-1" d="m73.38,288.44c2.05.49,4.29.44,6.66-.15,16.96-4.3,22.4-43.43,22.62-45.1.09-.69-.39-1.33-1.08-1.42-.69-.09-1.33.39-1.42,1.08-.05.39-5.43,39.1-20.74,42.98-3.98,1.01-7.53.11-9.99-2.53-3.22-3.45-4.1-9.3-2.26-14.91.22-.66-.14-1.38-.81-1.59-.66-.22-1.38.14-1.59.81-2.13,6.47-1.02,13.31,2.81,17.42,1.62,1.74,3.59,2.88,5.8,3.41Z"/>
      <path class="cls-11" d="m174.28,250.32c0,.7-.01,1.39-.02,2.08,0,1.63-.03,3.27-.05,4.89,0,.84-.02,1.68-.03,2.52,0,.12,0,.23,0,.34,0,.78-.01,1.55-.02,2.32-.61,50.44-2.38,96.53-6.01,129.6v.02l-.4,2.27-20.31,114.38-26.14-2.21s.95-90.57,6.7-111.24l-.11-126.77v-18.25s35.22,3.71,35.22,3.71l2.2-.72,1.3-.42,2.15-.71,5.52-1.81Z"/>
      <path class="cls-5" d="m168.15,392.08v.02l-.4,2.27c-.41.02-.81.03-1.21.03-8.51,0-15.65-4.17-16.03-4.4-.53-.32-.71-1-.39-1.54.32-.54,1.01-.71,1.54-.39.12.08,7.91,4.59,16.5,4.01Z"/>
      <path class="cls-5" d="m126.44,499.44s.09,0,.13,0c.6,0,1.09-.5,1.08-1.1-.61-76.36,8.96-106.62,9.06-106.92.04-.11.06-.24.05-.36l-1.91-121.11c0-.6-.51-1.09-1.11-1.08-.6,0-1.08.51-1.08,1.11l1.91,120.94c-.8,2.64-9.69,33.71-9.11,107.43,0,.56.43,1.01.97,1.08Z"/>
      <path class="cls-5" d="m174.16,248.48c-.1-.02-.18-.05-.24-.07-1.62-.55-3.17-1.3-4.65-2.26-.39-.25-.78-.52-1.15-.79-1.42-1.04-2.71-2.22-3.86-3.49-7.21-7.91-9.36-19.07-9.46-19.63-.11-.59.28-1.16.87-1.27.6-.11,1.17.28,1.28.87.03.13,2.22,11.55,9.42,19.07,1.06,1.11,2.23,2.14,3.52,3.03.19.13.38.26.57.38,1.14.73,2.32,1.33,3.56,1.8.08.82.13,1.61.16,2.37Z"/>
      <path class="cls-5" d="m136.97,263.21c.02.48-.36.89-.86.92t0,0c-.5.02-.93-.35-.95-.83-.16-3.29-.35-6.67-.57-10.03-.04-.59-.07-1.19-.12-1.78-.72-11.01-1.63-21.81-2.31-29.44-.06-.62-.11-1.22-.16-1.79-.15-1.67-.29-3.16-.41-4.42.6-.09,1.21-.19,1.8-.29.12,1.26.26,2.76.41,4.45.05.57.11,1.17.16,1.79.68,7.56,1.58,18.27,2.3,29.21.04.6.08,1.21.12,1.81.22,3.49.42,6.99.59,10.4Z"/>
      <path class="cls-5" d="m139.56,251.6c-.28.14-1.56.73-3.18,1.22-.57.17-1.17.33-1.8.45-.57.11-1.15.19-1.72.22-1.1.06-2.17-.05-3.05-.48-1.11-.53-1.82-1.49-2.07-2.78-.66-3.4-2.05-17.42-2.99-27.33-.06-.61-.12-1.2-.17-1.78-.15-1.59-.28-3.03-.39-4.26.6-.07,1.21-.15,1.81-.23.11,1.23.25,2.69.4,4.3.05.57.11,1.17.17,1.78.94,9.89,2.32,23.89,2.96,27.18.14.76.49,1.25,1.1,1.54.96.46,2.41.36,3.85.05.61-.13,1.22-.3,1.79-.49,1.04-.34,1.95-.72,2.5-.98.45-.22,1-.04,1.22.4.22.43.04.96-.41,1.18Z"/>
      <path class="cls-5" d="m89.04,233.02c-.11.39-1.66,6.01-5.1,11.59-2.1,3.4-4.91,6.78-8.52,8.95-.42.25-.84.49-1.28.7-1.23.61-2.49,1.05-3.8,1.31.25-.87.5-1.7.73-2.5.71-.21,1.4-.49,2.07-.82.66-.32,1.29-.7,1.89-1.11,2.84-1.93,5.12-4.74,6.9-7.59,3.37-5.42,4.91-11.02,4.93-11.11.16-.59.78-.95,1.38-.79.6.16.96.78.8,1.38Z"/>
    </g>
    <g>
      <g>
        <g>
          <g>
            <path class="cls-9" d="m221.23,109.68c-.07.47-.14.94-.22,1.4l-.06.35-.08.37-.17.74-.19.74c-.06.25-.12.49-.21.75-.17.52-.34,1.03-.52,1.54-.16.5-.42,1.05-.64,1.57-.25.53-.46,1.04-.77,1.58-.3.53-.6,1.06-.92,1.58-.35.52-.71,1.04-1.09,1.55-1.54,2.02-3.48,3.85-5.57,5.26-2.1,1.4-4.28,2.38-6.35,3.06-.51.16-1.05.33-1.54.46-.5.13-1,.24-1.5.36-.96.19-1.95.37-2.85.46-.94.12-1.81.17-2.7.22-.85.02-1.72.05-2.53.02-.83,0-1.61-.06-2.41-.11-.77-.07-1.55-.13-2.29-.22-1.5-.17-2.94-.41-4.33-.68-2.8-.54-5.42-1.24-7.98-2.04-1.28-.4-2.54-.83-3.79-1.29-.63-.23-1.26-.47-1.89-.72l-.97-.39-.51-.22-.27-.12-.37-.17c-7.26-3.57-10.25-12.35-6.68-19.61,3.56-7.25,12.31-10.24,19.57-6.7h0s0,0,0,0l.03.02.1.06.24.13.54.28c.37.19.76.38,1.15.56.79.37,1.59.72,2.4,1.06,1.61.66,3.22,1.23,4.73,1.67.75.22,1.49.41,2.17.56.35.08.67.13.99.2.3.04.62.11.89.13.05,0,.1.02.14.02.19.03.35.04.52.06.04,0,.08,0,.12.01.16,0,.33.02.47.03,0-.05,0-.09.01-.14.02-.17.03-.35.04-.55.02-.44.03-.93.01-1.44-.05-1.48-.23-3.15-.52-4.91-.62-3.54-1.65-7.35-2.9-11.18-1.25-3.84-2.72-7.73-4.32-11.61-1.59-3.89-3.33-7.77-5.15-11.64-1.8-3.88-3.73-7.73-5.68-11.58l-.05-.11c-2.54-5.04-.52-11.18,4.52-13.72,4.76-2.4,10.54-.69,13.29,3.77,2.37,3.85,4.73,7.71,6.99,11.67,2.27,3.95,4.49,7.96,6.6,12.09,2.11,4.13,4.14,8.34,6.01,12.77,1.86,4.43,3.57,9.03,4.92,14.1.66,2.55,1.22,5.23,1.59,8.15.34,2.92.51,6.11,0,9.81Z"/>
            <path class="cls-9" d="m181.39,99.43h-.03s0-.01,0-.01c.01,0,.02,0,.04.01Z"/>
          </g>
          <path class="cls-11" d="m201.31,50.81s-13.25,8.26-21.36,5.83c0,0-.5,4.06,3.06,5.77,0,0,6.8,1.77,20.6-6.75,0,0-.87-3.86-2.3-4.85Z"/>
          <g>
            <path class="cls-9" d="m176.55,47.47s8.21,7.39,15.7,3.9c6.05-2.83,6.92-11.51,7.04-14.74.03-.77.01-1.23.01-1.23,0,0,.41-.26.96-.72,1.31-1.07,3.44-3.22,3.05-5.58-.54-3.36-6.57-1.12-6.57-1.12,0,0,.7-4.14-1.19-5.23-1.85-1.08-5.39,1.22-5.39,1.22,0,0,6.96-17.05,4.18-18.1-4.18-1.58-10.45,16.58-10.59,16.99.02-.45.88-19.41-2.3-18.26-2.78,1.01-4.48,16.91-4.89,21.24-.07.69-.1,1.08-.1,1.08,0,0-.23,0-.61.04-1.81.16-7.13.94-7.9,4.72-.92,4.57,8.59,15.81,8.59,15.81Z"/>
            <path class="cls-6" d="m184.97,33.81c.13.38.45.88,1.22,1.08,1.65.42,3.84-.62,5.48-1.65-.56,1.49-.81,3.1-.43,4.21.25.71.73,1.19,1.41,1.36.47.12,1.06.08,1.71-.07,1.63-.37,3.63-1.39,4.93-2.12.03-.77.01-1.23.01-1.23,0,0,.41-.26.96-.72-.12,0-.23.03-.34.1-2.01,1.26-5.68,3.14-6.96,2.81-.17-.04-.38-.15-.52-.54-.42-1.22.36-3.92,1.6-5.54.2-.26.17-.62-.06-.85-.23-.23-.6-.24-.85-.03-1.21,1.01-4.76,3.51-6.62,3.03-.27-.07-.31-.19-.34-.25-.3-.88,1.17-3.36,2.26-4.76.21-.28.17-.68-.11-.89-.28-.21-.68-.17-.9.11-.52.67-3.09,4.1-2.46,5.96Z"/>
            <path class="cls-6" d="m172.93,36.09c.16,0,2.65.12,5.02-.42,1.31-.3,2.6-.79,3.43-1.62.69-.68,1.02-1.51.98-2.46-.12-3.38-3.68-5.07-5.8-5.77-.07.69-.1,1.08-.1,1.08,0,0-.23,0-.61.04,1.78.55,5.14,1.96,5.23,4.69.02.59-.18,1.08-.61,1.51-1.61,1.59-5.96,1.75-7.5,1.68-.35-.02-.65.25-.67.61-.02.35.26.65.61.67Z"/>
            <path class="cls-6" d="m187.28,47.46c.21-.05.4-.21.47-.43.11-.34-.08-.69-.42-.8-1.81-.57-3.07-1.62-3.74-3.12-1.73-3.85.77-9.47.8-9.52.15-.32,0-.7-.32-.84-.32-.14-.7,0-.84.32-.11.25-2.75,6.2-.8,10.57.83,1.85,2.35,3.13,4.52,3.81.11.03.23.04.33.01Z"/>
          </g>
          <g>
            <path class="cls-6" d="m201.32,113.34c-.13.13-.29.2-.46.2-.16,0-.32-.06-.44-.18-1.85-1.78-3.28-4.06-4.32-6.16-.43-.87-.8-1.71-1.1-2.47-.09-.22-.17-.43-.24-.63.19.03.35.04.52.06.15-.12.35-.17.55-.12.02,0,.03,0,.05.02.02-.17.03-.35.04-.55.95,2.53,2.71,6.34,5.4,8.92.25.25.26.65.02.91Z"/>
            <path class="cls-6" d="m196.61,113.03c-.07.02-.13.03-.2.03-.27,0-.52-.17-.61-.44-.06-.19-1.5-4.59-.81-7.88.01-.07.03-.15.05-.22.04-.14.12-.27.23-.35.15-.12.35-.17.55-.12.02,0,.03,0,.05.02.31.1.5.43.42.76-.18.73-.22,1.56-.19,2.39.1,2.49.91,4.99.92,5.01.11.34-.07.7-.41.81Z"/>
          </g>
          <path class="cls-2" d="m185.18,97.67l-7.66,34.47s-8.84-3.79-18.36-8.27c-.39-.18-.77-.36-1.15-.54-8.26-3.91-16.76-8.24-20.27-11-8.97-7.06-12.77-23.09,1.83-33.26,0,0,5.03-2.25,21.25,6.22,11.12,5.82,24.35,12.39,24.35,12.39Z"/>
        </g>
        <path class="cls-2" d="m170.6,228.07s-.05.05-.07.07c-1.85,1.72-3.95,3.37-6.26,4.91-.08.05-.15.1-.22.14-.74.49-1.5.97-2.28,1.43-.63.39-1.26.76-1.92,1.11-.34.2-.68.38-1.03.57-.65.35-1.32.69-2,1.03-5.35,2.66-11.41,4.87-17.91,6.5-.59.15-1.19.3-1.79.43-.43.1-.87.2-1.3.3-.6.13-1.2.26-1.8.38-.71.15-1.44.28-2.16.41-.6.11-1.19.21-1.8.31-.37.06-.74.12-1.11.17-.6.09-1.2.18-1.81.26-6,.8-12.22,1.1-18.48.84-.85-.04-1.71-.08-2.57-.14-1.31-.09-2.63-.2-3.94-.34-.84-.09-1.69-.19-2.53-.31-.13-.02-.27-.03-.4-.05-.05,0-.11-.02-.16-.02-.69-.1-1.38-.2-2.07-.31-3.7-.6-7.38-1.42-11-2.48-.36-.1-.72-.21-1.08-.32-.73-.22-1.47-.46-2.2-.7-2.04-.68-4.06-1.45-6.04-2.3-.52-.22-1.04-.45-1.55-.67-.31-.14-.62-.28-.93-.43-.33-.16-.66-.31-.98-.47-.06-.03-.12-.05-.17-.08-3.76-10.28-7.9-46.95-9.01-57.92-.22-2.18-.4-4.37-.54-6.55-.39-5.95-.51-11.92-.46-17.99.05-4.66.2-9.39.42-14.21.03-.6.06-1.2.09-1.81.11-2.21.23-4.44.36-6.69.03-.51.06-1.03.09-1.55,0-.12.01-.24.02-.36,0-.09.01-.18.02-.28.11-1.76.22-3.54.33-5.33.19-3.03.39-6.1.6-9.23.11-1.71.22-3.43.33-5.17.69-10.98,3.03-19.63,6.92-25.48.98-1.47,2.07-2.77,3.24-3.88.85-.81,1.76-1.52,2.71-2.12,1.97-1.26,4.15-2.09,6.54-2.47,2.18-.34,4.18-.8,5.99-1.32.33-.09.66-.19.99-.29,1.02-.31,1.98-.65,2.88-1,1.04-.4,2-.82,2.87-1.23.14-.06.27-.13.41-.19.24-.12.46-.23.69-.34l.03-.02c.61-.31,1.18-.62,1.7-.91,1.55-.87,2.69-1.64,3.37-2.13.48-.34.72-.54.72-.54h25.7c.21.29.41.58.62.85.02.02.03.04.04.06.33.43.68.84,1.03,1.22.66.72,1.37,1.37,2.1,1.95.94.76,1.92,1.39,2.94,1.95.42.24.85.45,1.28.66.33.16.67.31,1.01.46.35.15.7.29,1.06.43.84.33,1.69.62,2.54.9,0,0,.02,0,.03.01,5.3,1.69,10.67,2.55,14.29,5.61.64.53,1.22,1.14,1.74,1.83h0c1.05,1.4,1.84,3.15,2.29,5.38.12.62.2,1.3.22,2.05.19,5.69-2.23,15.14-3.21,30.71-.32,5.05-.49,10.75-.36,17.17.03,1.63.08,3.31.15,5.03.02.51.04,1.03.07,1.55.05,1.06.11,2.14.17,3.24h0c.07,1.1.14,2.22.23,3.36.15,2.12.35,4.31.57,6.55.2,1.97.42,3.99.67,6.06.26,2.12.54,4.29.86,6.52,1.27,8.87,4.11,26.47,7.1,41.25.47,2.33.95,4.58,1.42,6.73.05.23.09.45.14.67.53,2.38,1.06,4.61,1.57,6.63Z"/>
        <path class="cls-10" d="m159.96,105.18c0,.1-.26,3.94-.49,9.22,0,.04,0,.09,0,.12-.12,2.83-.24,6.06-.3,9.36-.39-.18-.77-.36-1.15-.54.06-3.09.17-6.09.28-8.74h0c.03-.68.06-1.32.09-1.93.2-4.21.4-7.19.43-7.56.02-.25.19-.45.42-.51.06-.02.12-.03.2-.02.32.02.55.29.53.61Z"/>
        <path class="cls-10" d="m130.01,116.74l21.06-1.62s6.12,27.58-7.02,28.95c-15.23,1.59-14.04-27.33-14.04-27.33Z"/>
        <path class="cls-4" d="m122.06,94.19c-13.93,0-23.52-21.28-23.94-22.25-.22-.49,0-1.05.49-1.27.49-.22,1.05,0,1.27.49.1.24,10.63,23.6,24.49,20.87,3.45-.68,5.91-2.3,7.29-4.81,3.23-5.85-.14-14.72-.17-14.8-.19-.5.06-1.05.55-1.24.5-.19,1.05.05,1.24.55.15.4,3.71,9.8.06,16.43-1.67,3.03-4.57,4.97-8.6,5.77-.91.18-1.8.26-2.68.26Z"/>
        <path class="cls-10" d="m122.14,109.35c-4.35,0-9.02-1.18-13.87-3.51-8.35-4.01-14.47-10.13-14.53-10.19-.23-.23-.24-.61-.03-.85.21-.25.56-.26.79-.03.06.06,6.07,6.06,14.25,9.99,10.88,5.21,20.24,4.47,27.82-2.2.24-.21.59-.17.78.09.19.26.16.64-.08.85-4.37,3.84-9.39,5.82-14.93,5.86-.06,0-.13,0-.19,0Z"/>
        <path class="cls-10" d="m121.83,98.66c-6.06,0-13.1-5.21-13.49-5.5-.25-.19-.32-.57-.14-.84.17-.28.52-.34.77-.15.12.09,11.89,8.79,17.37,3.66.23-.22.58-.19.79.06.2.25.17.64-.06.85-1.48,1.39-3.31,1.92-5.24,1.92Z"/>
        <path class="cls-10" d="m137.87,205.96c-2.27,0-4.59-.2-6.95-.61-5.82-1.01-11.9-3.27-18.07-6.7-10.49-5.84-17.73-13.18-17.8-13.26-.22-.23-.23-.61-.02-.86.21-.24.56-.26.79-.03.07.07,7.21,7.32,17.57,13.07,9.51,5.29,23.76,10.37,37.66,4.57.29-.12.61.04.72.35.11.31-.03.66-.32.78-4.27,1.79-8.82,2.68-13.57,2.68Z"/>
      </g>
      <g>
        <path class="cls-11" d="m97.34,49.21s1.06,8.3-1.34,11.6c0,0,6.09,4.66,10.82,2.16,0,0-5.21-12.42-9.47-13.76Z"/>
        <path class="cls-11" d="m139.48,19.36c.04.78.04,1.58-.02,2.41h0c-.16,2.4-.74,5.01-1.85,7.84l-.66.09-.66.09-2.3.33s-10.21-18.37-19.83-15.17c-9.62,3.2-10.34,25.05-10.34,25.05l-12.29.38s-8.63-13.39-4.02-25.15c3.84-9.8,14.41-9.08,14.41-9.08,0,0,9.07-8.43,20.12-5.54,7.15,1.87,16.86,7.84,17.45,18.76Z"/>
        <g>
          <g>
            <path class="cls-9" d="m128.76,62.86l1.23,6.44c-.64.75-1.3,1.43-1.98,2.03-9.91,8.86-23.57,2.83-23.57,2.83l-4.26-22.35,25.17,9.72,3.41,1.32Z"/>
            <path class="cls-11" d="m128.76,62.86l1.04,5.48c-14.25.18-20.88-7.63-20.88-7.63l16.43.84,3.41,1.32Z"/>
          </g>
          <path class="cls-6" d="m131.43,33.07s2.84-5.02,5.73-1.09c2.89,3.93,2.97,12.99-2.88,12.62l-2.86-11.53Z"/>
          <path class="cls-9" d="m138.23,47.5s2.56,13.32-11.31,15.93c-13.78,2.6-25.23-6.43-25.81-6.84-.01,0-.02-.01-.02-.01l-.68-2.77-3.55-14.39-1.9-7.69s-4.43-13.66,8.39-18.74c9.36-3.72,18.78-3.84,24.34.35.18.14.36.28.52.42,1.79,1.51,3.12,3.5,3.86,6.02l3.09,13.88.76,3.4,2.32,10.44Z"/>
          <path class="cls-4" d="m117.41,42.74s8.57,1.6,14.44-.66c0,0-.01,8-7.47,7.52-4.94-.32-6.97-6.86-6.97-6.86Z"/>
          <path class="cls-11" d="m136.08,29.82l-4.35.4s-1.05-10.46-7.68-14.66c-4.26-2.69-11.65-.29-16.39,1.78-.26.11-.51.22-.76.34-1.19.54-2.16,1.03-2.81,1.37-.28.15-.49.26-.64.34-.16.09-.24.14-.24.14,0,0,3.74,5.08.33,10.08-2.89,4.24,3.45,12.15,3.45,12.15l-6.32,1.2c-3.48-1-5.94-7.45-5.94-7.45,0,0-5-8.42-2.29-16.51,1.48-4.4,7.96-8.32,15.12-10.55.42-.13.85-.26,1.27-.38,5.64-1.58,11.53-2.08,15.63-.93,3.25.91,5.63,3.78,7.35,7.18.47.93.89,1.9,1.27,2.87,2.35,6.09,2.99,12.62,2.99,12.62Z"/>
          <path class="cls-11" d="m107.61,28.03h0c1,1.42,2.96,1.79,4.4.81.84-.57,1.85-1.16,2.94-1.63,1.55-.66,2.24-2.48,1.5-3.99h0s-6.57.64-8.84,4.8Z"/>
          <path class="cls-11" d="m132.68,23.26h0c-.41,1.69-2.09,2.75-3.79,2.37-.99-.22-2.15-.4-3.34-.43-1.68-.04-2.99-1.48-2.86-3.16h0s6.34-1.82,9.99,1.22Z"/>
          <path class="cls-6" d="m117.39,38.82c.18.97-1.66,2.14-4.13,2.61-2.47.47-4.61.06-4.8-.91-.18-.97,1.66-2.14,4.13-2.61,2.47-.47,4.61-.06,4.8.91Z"/>
          <path class="cls-6" d="m135.9,37.06c-.34.1-.7.19-1.07.26-2.46.47-4.61.06-4.8-.91-.18-.97,1.66-2.14,4.13-2.61.33-.06.66-.11.98-.14l.76,3.4Z"/>
          <path class="cls-11" d="m116.38,33.48c.25,1.33-.14,2.53-.89,2.67-.75.14-1.56-.82-1.81-2.16-.25-1.33.14-2.53.89-2.67.75-.14,1.56.82,1.81,2.16Z"/>
          <path class="cls-11" d="m129.77,30.92c.25,1.33-.14,2.53-.89,2.67-.75.14-1.56-.82-1.81-2.16s.14-2.53.89-2.67c.75-.14,1.56.82,1.81,2.16Z"/>
          <path class="cls-11" d="m104.41,50.36c-.03.16-1.01,4.56-3.31,6.23,0,0-.02-.01-.02-.01l-.68-2.77s2.12-.79,4.01-3.45Z"/>
          <path class="cls-9" d="m100.21,41.57s-6.69-6.14-9.52.23c-2.33,5.25,6.05,16.17,11.63,10.82l-2.1-11.04Z"/>
          <path class="cls-11" d="m101.17,50.59c-.28.05-.55-.11-.64-.38-1.62-5.3-6.52-6.33-6.73-6.37-.3-.06-.5-.35-.44-.65.06-.3.35-.5.65-.44.23.05,5.76,1.18,7.58,7.14.09.29-.08.61-.37.7-.02,0-.04.01-.06.01Z"/>
          <path class="cls-11" d="m95.42,48.24c-.16.03-.33,0-.46-.12-.24-.2-.27-.55-.07-.79.18-.22,1.86-2.14,3.58-2.04.31.02.54.28.52.59-.02.31-.28.54-.59.52-.99-.06-2.26,1.16-2.66,1.64-.09.1-.2.16-.32.19Z"/>
          <path class="cls-11" d="m123.91,38.99c-.3.06-.59-.14-.65-.44-.06-.3.14-.6.44-.65,2.02-.38,2.76-1.63,2.98-2.15-3.05-4.09-6.08-8.22-6.12-8.26-.18-.25-.13-.6.12-.78.25-.18.6-.13.78.12.03.04,3.19,4.33,6.29,8.5.1.13.13.31.09.47-.03.11-.69,2.58-3.94,3.2Z"/>
        </g>
      </g>
    </g>
    <g>
      <path class="cls-9" d="m60,131.47l-.33.25-.24.18-.45.33-.86.6c-.57.39-1.13.76-1.69,1.13-1.13.73-2.26,1.42-3.42,2.1-2.31,1.35-4.72,2.6-7.33,3.75-1.3.57-2.65,1.12-4.07,1.62-.7.26-1.45.49-2.19.72-.77.22-1.51.45-2.33.64-.78.2-1.63.37-2.47.54-.88.14-1.74.29-2.68.38-.9.11-1.9.15-2.89.18-.51,0-1.03,0-1.54-.02-.52,0-1.07-.06-1.61-.11-2.18-.2-4.52-.67-6.87-1.58-2.36-.91-4.65-2.27-6.6-3.9-.48-.41-.95-.83-1.4-1.26-.42-.44-.84-.88-1.24-1.34-.42-.46-.75-.91-1.1-1.37-.34-.46-.71-.94-.98-1.39-.29-.46-.57-.92-.85-1.39-.15-.24-.25-.46-.37-.69l-.34-.68-.33-.68-.16-.34-.14-.33c-.18-.44-.36-.88-.53-1.32-1.31-3.5-1.85-6.65-2.16-9.57-.3-2.92-.34-5.66-.26-8.3.19-5.24.85-10.11,1.68-14.84.84-4.72,1.89-9.29,3.04-13.78,1.14-4.49,2.42-8.89,3.77-13.25,1.33-4.36,2.78-8.65,4.23-12.93,1.82-5.34,7.62-8.19,12.96-6.37,5.05,1.72,7.88,7.01,6.63,12.09l-.04.16c-1.04,4.19-2.08,8.37-2.98,12.55-.91,4.18-1.75,8.35-2.44,12.49-.7,4.14-1.28,8.26-1.64,12.28-.37,4.01-.53,7.96-.35,11.54.1,1.78.29,3.45.58,4.91.1.5.21.97.33,1.4.05.18.11.36.16.52.01.05.03.09.04.14.13-.04.3-.09.45-.13.04-.01.07-.03.11-.04.16-.06.32-.11.5-.17.04-.01.09-.03.14-.05.26-.08.55-.22.84-.32.3-.14.6-.26.92-.42.63-.29,1.31-.64,1.99-1.02,1.38-.76,2.81-1.68,4.24-2.68.71-.5,1.42-1.03,2.1-1.56.34-.27.68-.54,1-.8l.46-.39.21-.18.09-.08.02-.03h0c6.29-5.07,15.49-4.08,20.57,2.2,5.08,6.29,4.11,15.51-2.18,20.6Z"/>
      <path class="cls-11" d="m11.4,65.68s14.75,5.13,22.12.96c0,0,1.39,3.85-1.71,6.3,0,0-6.24,3.23-21.59-2.03,0,0,0-3.95,1.18-5.24Z"/>
      <g>
        <path class="cls-9" d="m34.81,56.95s-6.37,9.03-14.45,7.27c-6.52-1.42-9.3-9.69-10.12-12.82-.2-.75-.28-1.2-.28-1.2,0,0-.46-.17-1.1-.49-1.51-.76-4.06-2.38-4.21-4.77-.21-3.4,6.16-2.55,6.16-2.55,0,0-1.59-3.88,0-5.37,1.57-1.46,5.53,0,5.53,0,0,0-10.55-15.09-8.08-16.73,3.73-2.47,13.86,13.86,14.09,14.23-.12-.43-5.15-18.74-1.79-18.32,2.93.37,8.11,15.5,9.46,19.63.22.65.33,1.03.33,1.03,0,0,.22-.04.6-.1,1.8-.25,7.16-.66,8.74,2.86,1.91,4.25-4.89,17.32-4.89,17.32Z"/>
        <path class="cls-6" d="m23.58,45.49c-.04.4-.25.95-.96,1.32-1.51.77-3.88.24-5.7-.4.88,1.33,1.48,2.84,1.35,4.02-.08.75-.45,1.32-1.07,1.64-.43.22-1.01.31-1.68.31-1.67,0-3.85-.55-5.28-.98-.2-.75-.28-1.2-.28-1.2,0,0-.46-.17-1.1-.49.11-.03.24-.02.35.02,2.24.78,6.24,1.81,7.41,1.2.15-.08.34-.23.39-.64.14-1.29-1.21-3.74-2.79-5.04-.25-.21-.31-.57-.13-.84.18-.27.53-.37.82-.22,1.4.71,5.42,2.37,7.13,1.49.25-.13.26-.26.27-.32.1-.92-1.89-3.02-3.26-4.14-.27-.22-.31-.62-.09-.9.22-.27.62-.31.9-.09.66.54,3.92,3.32,3.72,5.26Z"/>
        <path class="cls-6" d="m35.83,45.05c-.16.04-2.56.7-4.99.7-1.35,0-2.71-.2-3.7-.82-.82-.51-1.33-1.24-1.5-2.18-.63-3.32,2.47-5.76,4.38-6.91.22.65.33,1.03.33,1.03,0,0,.22-.04.6-.1-1.61.93-4.58,3.04-4.07,5.74.11.58.41,1.02.92,1.34,1.92,1.19,6.2.39,7.68-.02.34-.1.69.1.78.44.1.34-.11.69-.44.78Z"/>
        <path class="cls-6" d="m24.35,59.31c-.22,0-.43-.11-.55-.32-.18-.3-.07-.69.23-.87,1.64-.95,2.64-2.26,2.96-3.87.83-4.14-2.85-9.06-2.88-9.11-.21-.28-.16-.68.12-.89.28-.21.68-.16.89.12.17.22,4.06,5.44,3.11,10.13-.4,1.99-1.6,3.57-3.57,4.72-.1.06-.21.09-.32.09Z"/>
      </g>
      <g>
        <path class="cls-6" d="m29.59,116.2c-.03.21-.06.44-.1.67-.13.81-.3,1.71-.53,2.66-.55,2.28-1.44,4.81-2.85,6.95-.12.19-.33.29-.54.29-.12,0-.24-.04-.35-.11-.3-.2-.38-.59-.18-.89,1.81-2.75,2.7-6.28,3.14-8.91.05-.34.11-.67.15-.98.05.18.11.36.16.52.01,0,.03-.02.04-.03.18-.09.39-.09.56,0,.16-.06.32-.11.5-.17Z"/>
        <path class="cls-6" d="m30.44,124.74c-.03.33-.31.58-.63.58-.02,0-.04,0-.06,0-.35-.04-.61-.35-.58-.7,0-.04.25-2.64-.21-5.08-.15-.81-.38-1.61-.71-2.29-.06-.12-.08-.25-.06-.37.03-.19.13-.36.31-.46.01,0,.03-.02.04-.03.18-.09.39-.09.56,0,.13.06.23.16.3.29.03.07.06.13.09.21,1.41,3.06.97,7.67.96,7.87Z"/>
      </g>
      <path class="cls-2" d="m77.86,79.58s-5.4-1.08-19.35,10.77c-9.56,8.13-21.01,17.46-21.01,17.46l15.09,31.92s28.22-20.47,34.41-28.13c7.19-8.88,7.34-25.34-9.15-32.03Z"/>
      <g>
        <path class="cls-10" d="m86.68,112.51c-.26.26-2.38,2.36-5.44,5.26-.45.43-.91.86-1.4,1.33h0c-4.6,4.33-10.74,9.93-15.94,14.02.03-.51.06-1.03.09-1.55,1.69-1.36,3.47-2.87,5.26-4.42,3.49-3.03,6.99-6.26,9.87-8.97.03-.03.06-.06.09-.08,3.85-3.63,6.58-6.32,6.65-6.4.23-.23.59-.23.81,0,.05.05.09.1.11.16.1.21.06.47-.11.65Z"/>
        <path class="cls-10" d="m79.39,119.1c.08.03.16.03.25.02l7.75-.93c.32-.04.54-.32.5-.64-.04-.32-.32-.54-.64-.5l-7.75.93c-.32.04-.54.32-.5.64.03.23.19.41.39.48Z"/>
      </g>
    </g>
  </g>
</svg>